PathFileType	4	(X/Y/Z)	C:\Users\Basilio\Documents\Thesis Gigler\squatting_fais\c3dfiles\041\SLS_pre_front3\markers_experimental.trc
DataRate	CameraRate	NumFrames	NumMarkers	Units	OrigDataRate	OrigDataStartFrame	OrigNumFrames
200.000000	200.000000	4	62	mm	200.000000	1013	1622
Frame#	Time	FHD			LBHD			RBHD			C7			T10			CLAV			LSHO			LUUPA			LMUPA			LDUPA			LLEP			LMEP			LRAD			LUL			LRFIN			RSHO			RUPA1			RMUPA			RDUPA			RLEP			RMEP			RRAD			RUL			RUFIN			LASI			RASI			USACR			LSACR			RSACR			LTHI1			LTHI2			LTHI3			LTHI4			LLFC			LMFC			LTIB1			LTIB2			LTIB3			LTIB4			LLMAL			LMMAL			LHEE			LMT1			LMT2			LMT5			RTHI			RTHI2			RTHI3			RTHI4			RLFC			RMFC			RTIB1			RTIB2			RTIB3			RTIB4			RLMAL			RMMAL			RHEE			RMT1			RMT2			RMT5			*61			
		X1	Y1	Z1	X2	Y2	Z2	X3	Y3	Z3	X4	Y4	Z4	X5	Y5	Z5	X6	Y6	Z6	X7	Y7	Z7	X8	Y8	Z8	X9	Y9	Z9	X10	Y10	Z10	X11	Y11	Z11	X12	Y12	Z12	X13	Y13	Z13	X14	Y14	Z14	X15	Y15	Z15	X16	Y16	Z16	X17	Y17	Z17	X18	Y18	Z18	X19	Y19	Z19	X20	Y20	Z20	X21	Y21	Z21	X22	Y22	Z22	X23	Y23	Z23	X24	Y24	Z24	X25	Y25	Z25	X26	Y26	Z26	X27	Y27	Z27	X28	Y28	Z28	X29	Y29	Z29	X30	Y30	Z30	X31	Y31	Z31	X32	Y32	Z32	X33	Y33	Z33	X34	Y34	Z34	X35	Y35	Z35	X36	Y36	Z36	X37	Y37	Z37	X38	Y38	Z38	X39	Y39	Z39	X40	Y40	Z40	X41	Y41	Z41	X42	Y42	Z42	X43	Y43	Z43	X44	Y44	Z44	X45	Y45	Z45	X46	Y46	Z46	X47	Y47	Z47	X48	Y48	Z48	X49	Y49	Z49	X50	Y50	Z50	X51	Y51	Z51	X52	Y52	Z52	X53	Y53	Z53	X54	Y54	Z54	X55	Y55	Z55	X56	Y56	Z56	X57	Y57	Z57	X58	Y58	Z58	X59	Y59	Z59	X60	Y60	Z60	X61	Y61	Z61	X62	Y62	Z62	

1014	5.065	-183.4833221435547	1540.170166015625	-1102.263793945313	-358.5338439941407	1462.050170898438	-1170.77734375	-336.3912353515626	1474.205200195313	-1019.262939453125	-398.7489013671876	1352.736938476563	-1095.03173828125	-539.2988891601564	1080.763061523438	-1057.360107421875	-259.8311157226563	1260.988403320313	-1097.6826171875	-329.6102294921876	1354.470581054688	-1220.909057617188	-235.4719543457032	1363.198608398438	-1350.892822265625	-191.5821380615235	1374.307250976563	-1333.583374023438	-180.2649841308594	1367.781982421875	-1393.803588867188	-137.4109802246094	1367.636352539063	-1413.370239257813	-91.72120666503908	1298.647338867188	-1387.359985351563	129.5776977539063	1416.610717773438	-1468.177368164063	98.69549560546878	1420.375122070313	-1534.115478515625	187.5576171875	1464.427124023438	-1490.1865234375	-309.7050476074219	1374.156860351563	-992.3013305664065	-162.7283020019532	1386.178833007813	-887.8943481445315	-148.1033325195313	1407.195190429688	-932.249450683594	-97.1366882324219	1409.258422851563	-900.7719726562502	-52.71373748779298	1414.249145507813	-906.9636840820315	-30.33021545410157	1332.103149414063	-922.169616699219	210.332015991211	1422.760864257813	-981.7576904296877	207.1245422363282	1449.06103515625	-910.2507324218752	291.7356567382813	1440.931762695313	-986.5437622070315	-416.5203247070314	870.235046386719	-1151.298461914063	-428.5505981445314	870.0028076171877	-927.4332275390627	-591.7644042968751	953.7941894531252	-1048.133178710938	-608.6094970703126	928.8553466796877	-1076.682006835938	-613.8047485351564	927.8225097656252	-1022.459594726563	-419.0841369628907	683.9353637695314	-1214.596801757813	-338.3634948730469	656.3087768554689	-1205.821044921875	-306.3871154785157	690.0759277343751	-1195.597412109375	-319.9632263183594	597.7018432617189	-1194.91162109375	-197.4975891113282	484.0062866210939	-1158.085205078125	-199.9132232666016	478.7195129394532	-1040.693115234375	-226.0732727050782	307.3436889648438	-1077.931274414063	-283.2597351074219	274.7089233398438	-1140.565063476563	-251.7075500488282	262.4191284179688	-1111.172485351563	-284.1882629394532	197.6952819824219	-1069.182250976563	-375.0788879394532	128.9557037353516	-1106.635009765625	-338.8814086914063	136.7056427001953	-1022.468322753906	-447.6991271972657	116.2183914184571	-1062.844970703125	-241.6866607666016	61.7415008544922	-1037.322021484375	-235.7711029052735	56.82798385620119	-1082.606689453125	-284.7579956054688	46.24968719482423	-1136.249755859375	-390.4552612304689	636.8900756835939	-865.7269287109377	-324.6876220703126	635.1233520507814	-861.872497558594	-305.3537597656251	662.4526977539064	-864.930358886719	-277.4439697265626	567.2821044921876	-884.2302246093752	-174.0643768310547	497.6612243652345	-889.037292480469	-142.1701202392578	510.9123535156251	-1003.957397460938	-27.71204185485841	409.0381774902345	-898.159606933594	-30.3244972229004	295.8376159667969	-893.8142089843752	3.653982400894166	327.4667663574219	-890.3486938476565	54.95802688598634	313.4201965332032	-916.1670532226565	106.4656448364258	188.3339996337891	-911.5156860351565	114.4719848632813	232.5661010742188	-987.7222900390627	103.8844757080078	122.6311874389649	-969.466979980469	241.215805053711	289.8585205078126	-956.048522949219	236.9616241455079	289.9566040039063	-903.2981567382815	226.7105407714844	236.7060699462891	-863.685729980469	-4217.232421875001	853.2481689453127	-3944.788330078126	
1015	5.07	-183.3591918945313	1540.317138671875	-1102.163818359375	-358.4346008300782	1462.208618164063	-1170.691284179688	-336.2759094238282	1474.379516601563	-1019.138671875	-398.664276123047	1352.963500976563	-1095.025390625	-539.2331542968751	1080.852416992188	-1057.369140625	-259.5939636230469	1261.206176757813	-1097.666015625	-329.6229553222657	1354.7099609375	-1220.868286132813	-235.1165771484376	1363.364013671875	-1350.926025390625	-191.3350067138672	1374.50732421875	-1333.5986328125	-180.089111328125	1368.012573242188	-1393.785400390625	-137.311752319336	1367.808471679688	-1413.297729492188	-91.65688323974611	1298.842163085938	-1387.273681640625	129.4896087646485	1416.896362304688	-1468.015258789063	98.83856964111331	1420.654418945313	-1533.969604492188	188.204345703125	1464.278930664063	-1490.081787109375	-309.5343017578126	1374.350708007813	-992.292175292969	-162.6299896240235	1386.3916015625	-887.8975830078127	-147.990707397461	1407.53125	-932.2459106445315	-97.11975097656253	1409.53857421875	-900.745544433594	-52.80930709838869	1414.5986328125	-907.0647583007815	-30.00102233886719	1332.669067382813	-922.221130371094	210.3303527832032	1423.364135742188	-981.8535766601565	207.1790313720704	1449.570556640625	-910.261901855469	291.8651428222657	1441.4990234375	-986.5397949218752	-416.4852294921876	870.391296386719	-1151.330444335938	-428.3910522460939	870.3070068359377	-927.5030517578127	-591.7451782226564	954.0963134765627	-1048.135986328125	-608.5897216796876	929.1254882812502	-1076.650390625	-613.9637451171876	928.0107421875002	-1022.606323242188	-419.090545654297	684.0811157226564	-1214.646118164063	-338.4377441406251	656.3955688476564	-1205.900268554688	-306.5393676757813	690.2592773437501	-1195.6728515625	-320.5594177246094	598.0548706054689	-1195.03125	-197.6679840087891	484.0484008789064	-1158.129028320313	-200.1665191650391	478.8512268066407	-1040.787231445313	-226.113998413086	307.3970642089844	-1078.000610351563	-283.2620544433594	274.7188415527344	-1140.58935546875	-251.7216186523438	262.3747253417969	-1111.272705078125	-284.2463989257813	197.6743621826172	-1069.241088867188	-375.0716247558594	128.9345092773438	-1106.6591796875	-338.8828735351563	136.6850891113282	-1022.467956542969	-447.7210083007814	116.2377548217774	-1062.798217773438	-241.6903533935547	61.76863479614259	-1037.3017578125	-235.7826080322266	56.78165817260744	-1082.59521484375	-284.8289489746094	46.26557922363282	-1136.237060546875	-390.3298950195314	637.2153320312501	-865.7680664062502	-324.4571228027344	635.1953125000001	-862.1381835937502	-305.1770019531251	662.6422729492189	-865.1641235351565	-277.3366088867188	567.5097656250001	-884.3877563476565	-173.9664764404297	497.7811889648439	-889.2435302734377	-142.1454010009766	511.1087341308595	-1004.204956054688	-27.6581211090088	409.0949096679689	-898.4246215820315	-30.54467010498048	295.7543640136719	-894.1446533203127	3.629693031311036	327.6107788085938	-890.5960083007815	54.89245986938478	313.3971862792969	-916.466247558594	106.2701416015625	188.3221740722657	-911.8022460937502	114.3810729980469	232.5697784423829	-987.966247558594	103.6401824951172	122.7108993530274	-969.6470336914065	241.1831665039063	289.7333068847657	-956.349304199219	236.8126525878907	289.9807739257813	-903.6257934570315	226.7459869384766	236.6882629394532	-864.0397949218752	-4216.670898437501	853.0480957031252	-3944.746093750001	
1016	5.075	-183.294174194336	1540.487670898438	-1102.0908203125	-358.4099121093751	1462.400268554688	-1170.612915039063	-336.1529235839844	1474.476684570313	-1018.986022949219	-398.566131591797	1353.276489257813	-1094.97265625	-539.2335205078126	1081.125854492188	-1057.33984375	-259.5527343750001	1261.377807617188	-1097.647827148438	-329.5044555664063	1354.947265625	-1220.836669921875	-234.8711242675782	1363.60302734375	-1350.962890625	-191.2754669189453	1374.6943359375	-1333.584350585938	-180.00927734375	1368.248291015625	-1393.754150390625	-137.1307220458985	1368.024780273438	-1413.295043945313	-91.51390838623048	1299.06298828125	-1387.224609375	129.8377990722657	1417.001953125	-1467.871459960938	99.18840026855472	1420.8564453125	-1533.865844726563	188.0525054931641	1464.696044921875	-1489.915649414063	-309.4303283691407	1374.594482421875	-992.2764282226565	-162.4170379638672	1386.652465820313	-887.893981933594	-148.1077423095703	1407.709350585938	-932.1958618164065	-97.04964447021487	1409.81201171875	-900.7398681640627	-53.03989410400392	1415.080444335938	-907.0745239257815	-30.03257942199708	1333.055786132813	-922.243347167969	210.3352203369141	1423.996215820313	-981.818298339844	207.3679351806641	1450.01953125	-910.2224731445315	291.9234313964844	1442.049194335938	-986.552917480469	-416.4349365234376	870.6661376953127	-1151.377075195313	-428.3295898437501	870.4368896484377	-927.4507446289065	-591.5270385742189	954.1370239257815	-1047.976684570313	-608.5115356445314	929.3875122070315	-1076.611450195313	-613.9265136718751	928.2498168945315	-1022.726318359375	-419.1983337402345	684.1984252929689	-1214.667724609375	-338.4821472167969	656.5689697265626	-1205.905883789063	-306.4506225585938	690.2415771484376	-1195.712646484375	-320.6889038085938	598.1535644531251	-1195.065307617188	-197.8334197998047	484.1133728027345	-1158.2197265625	-200.2379150390626	478.8970031738282	-1040.897338867188	-226.1710968017579	307.3986206054688	-1078.03857421875	-283.3679199218751	274.7594909667969	-1140.642822265625	-251.6935424804688	262.3686828613282	-1111.29345703125	-284.2586669921876	197.6945343017579	-1069.261352539063	-375.0817260742188	128.9246215820313	-1106.66064453125	-338.8905334472657	136.646728515625	-1022.464050292969	-447.7342529296876	116.2268753051758	-1062.826049804688	-241.8937988281251	61.93531417846681	-1037.22509765625	-235.7630920410157	56.81191635131837	-1082.603881835938	-284.8105468750001	46.25248718261719	-1136.195678710938	-390.254119873047	637.3972778320314	-865.7968750000002	-324.3719482421876	635.3533935546876	-862.1997070312502	-305.0625305175782	662.8630371093751	-865.2636718750002	-277.2618408203126	567.6683349609376	-884.4525146484377	-173.9552917480469	497.9019165039064	-889.4327392578127	-142.1506042480469	511.1986389160157	-1004.448181152344	-27.60863494873048	409.1350708007814	-898.6882324218752	-30.43294143676759	295.9221191406251	-894.2138671875002	3.663315057754517	327.7077636718751	-890.8825683593752	54.84047317504884	313.4869384765626	-916.764831542969	106.2357482910157	188.4278411865235	-911.9372558593752	114.2295913696289	232.5352020263672	-988.1985473632815	103.3852233886719	123.5500717163086	-970.2479248046877	241.1035308837891	289.7110595703126	-956.7059326171877	236.7024688720704	289.9749450683594	-904.0023193359377	226.7571868896485	236.6870880126954	-864.2843017578127	-4217.331542968751	853.211364746094	-3944.694335937501	
1017	5.08	-183.082504272461	1540.746704101563	-1102.048828125	-358.1500549316407	1462.59228515625	-1170.445068359375	-336.0350952148438	1474.65625	-1018.815124511719	-398.4295349121095	1353.530639648438	-1094.943359375	-539.1533813476564	1081.363891601563	-1057.33642578125	-259.5564880371094	1261.55419921875	-1097.55517578125	-329.5052185058594	1355.17138671875	-1220.855346679688	-234.6814727783204	1363.797973632813	-1350.9033203125	-191.1064758300782	1374.937622070313	-1333.556884765625	-179.6553802490235	1368.40966796875	-1393.557006835938	-136.9815979003907	1368.214965820313	-1413.29443359375	-91.37538909912111	1299.213012695313	-1387.204956054688	130.4294738769532	1417.263916015625	-1467.64208984375	99.37793731689456	1421.170776367188	-1533.756225585938	188.3580474853516	1464.921997070313	-1489.736328125	-309.3783569335938	1374.848876953125	-992.2337036132815	-162.1926574707032	1386.880859375	-887.8636474609377	-148.2323913574219	1408.06298828125	-932.1409912109377	-96.86553955078128	1410.094848632813	-900.7845458984377	-52.49300003051759	1414.784545898438	-906.615905761719	-29.90320205688477	1333.37646484375	-922.2437744140627	210.3845672607422	1424.514526367188	-981.8030395507815	207.5174560546876	1450.556396484375	-910.2019042968752	291.9706420898438	1442.631958007813	-986.5994873046877	-416.4165344238282	871.045104980469	-1151.375732421875	-428.3020629882814	870.5855712890627	-927.4291992187502	-591.6525878906251	954.5577392578127	-1048.113037109375	-608.4530029296876	929.715515136719	-1076.598510742188	-613.7912597656251	928.4946289062502	-1022.639099121094	-419.2189941406251	684.3628540039064	-1214.68603515625	-338.5566711425782	656.7136230468751	-1205.94775390625	-306.5518188476563	690.3720092773439	-1195.761840820313	-320.2746582031251	597.9175415039064	-1194.958984375	-198.0749053955079	484.0982055664064	-1158.275634765625	-200.2955474853516	478.8845214843751	-1040.948608398438	-226.2002716064454	307.4329223632813	-1078.12158203125	-283.4441223144532	274.7938537597657	-1140.600952148438	-251.8274383544922	262.3714904785157	-1111.23876953125	-284.2941589355469	197.6764831542969	-1069.278198242188	-375.0711669921876	128.8597564697266	-1106.666748046875	-338.9147033691407	136.6248168945313	-1022.484802246094	-447.720428466797	116.2020263671875	-1062.838134765625	-241.897933959961	61.94330215454103	-1037.174560546875	-235.7724304199219	56.7527198791504	-1082.557739257813	-284.6963195800782	46.33018493652344	-1136.321044921875	-390.1411743164064	637.6956787109376	-865.885925292969	-324.1651916503907	635.4774169921876	-862.4241333007815	-305.0659790039063	663.0891113281251	-865.3443603515627	-277.2465820312501	567.8531494140626	-884.6181640625002	-173.9578704833985	497.982391357422	-889.603698730469	-142.2025146484375	511.2791748046876	-1004.69140625	-27.6423454284668	409.2286376953126	-898.9249267578127	-30.67031860351563	295.7525329589844	-894.5183715820315	3.649635076522828	327.8077087402344	-891.1029052734377	55.00612640380861	313.5174560546876	-916.7336425781252	106.1648330688477	188.4522552490235	-912.200134277344	114.1528472900391	232.6102294921876	-988.5103149414065	103.2041778564453	123.6860580444336	-970.5209960937502	241.0134735107422	289.6588134765626	-957.0644531250002	237.0970153808594	289.4873352050782	-904.516052246094	226.7420959472657	236.6100616455079	-864.6641235351565	-4217.296386718751	853.2675781250002	-3944.633544921876	
